<svg width="233" height="313" viewBox="0 0 233 313" xmlns="http://www.w3.org/2000/svg" xmlns:xlink="http://www.w3.org/1999/xlink"><title>egg-error</title><defs><path d="M193.7 48.5C154.3-2.8 116.6.5 116.6.5s-37.8-3.2-77.1 48S-4.2 160.2 4 210c11.1 67.1 56.6 102.6 112.5 102.6S218 277.1 229 210c8.3-49.8 4-110.2-35.3-161.5z" id="a"/><path d="M96.09 181.22l-33.92 33.922c-1.983 1.982-3.305 4.218-3.965 6.54-.66 2.32-.66 4.728 0 7.05.66 2.32 1.982 4.557 3.964 6.54 1.98 1.98 4.218 3.303 6.54 3.963 2.32.66 4.727.66 7.048 0 2.322-.66 4.558-1.982 6.54-3.964l33.922-33.92 33.922 33.92c1.982 1.983 4.218 3.305 6.54 3.965 2.32.66 4.728.66 7.05 0 2.32-.66 4.557-1.982 6.54-3.964 1.98-1.98 3.303-4.218 3.963-6.54.66-2.32.66-4.727 0-7.048-.66-2.322-1.982-4.558-3.964-6.54l-33.92-33.922 33.92-33.922c1.983-1.982 3.305-4.218 3.965-6.54.66-2.32.66-4.728 0-7.05-.66-2.32-1.982-4.557-3.964-6.54-1.98-1.98-4.218-3.303-6.54-3.963-2.32-.66-4.727-.66-7.048 0-2.322.66-4.558 1.982-6.54 3.964l-33.922 33.92-33.922-33.92c-1.982-1.983-4.218-3.305-6.54-3.965-2.32-.66-4.728-.66-7.05 0-2.32.66-4.557 1.982-6.54 3.964-1.98 1.98-3.303 4.218-3.963 6.54-.66 2.32-.66 4.727 0 7.048.66 2.322 1.982 4.558 3.964 6.54l33.92 33.922z" id="b"/></defs><g fill="none" fill-rule="evenodd"><g fill-rule="nonzero"><use fill="#EF0421" fill-rule="evenodd" xlink:href="#a"/><path stroke="#E71212" stroke-width="2" d="M192.906 49.108c-16.283-21.2-33.402-34.66-50.422-41.906-6.164-2.624-11.954-4.265-17.252-5.11-3.506-.56-6.288-.702-8.226-.614-.165.007-.272.014-.32.018h-.17c-.045-.003-.147-.01-.303-.017-1.925-.084-4.7.06-8.2.62-5.306.848-11.102 2.49-17.273 5.114-17.052 7.25-34.183 20.706-50.447 41.895C5.405 94.56-4.72 150.89 4.987 209.836 15.595 273.965 58.653 311.6 116.5 311.6c57.884 0 101.006-37.667 111.514-101.764 9.822-58.933-.216-115.183-35.108-160.728z"/></g><use fill="#FFF" xlink:href="#b"/><path stroke="#D0021B" d="M62.522 146.945l34.276 34.275-34.276 34.275c-1.89 1.89-3.188 4.046-3.836 6.324-.636 2.23-.636 4.542 0 6.774.648 2.278 1.945 4.432 3.836 6.324 1.892 1.89 4.046 3.188 6.324 3.836 2.232.636 4.543.636 6.775 0 2.28-.648 4.434-1.945 6.325-3.836l34.275-34.276 34.275 34.276c1.89 1.89 4.046 3.188 6.324 3.836 2.23.636 4.542.636 6.774 0 2.278-.648 4.432-1.945 6.324-3.836 1.89-1.892 3.188-4.046 3.836-6.324.636-2.232.636-4.543 0-6.775-.648-2.28-1.945-4.434-3.836-6.325l-34.276-34.275 34.276-34.275c1.89-1.89 3.188-4.046 3.836-6.324.636-2.23.636-4.542 0-6.774-.648-2.278-1.945-4.432-3.836-6.324-1.892-1.89-4.046-3.188-6.324-3.836-2.232-.636-4.543-.636-6.775 0-2.28.648-4.434 1.945-6.325 3.836l-34.275 34.276-34.275-34.276c-1.89-1.89-4.046-3.188-6.324-3.836-2.23-.636-4.542-.636-6.774 0-2.278.648-4.432 1.945-6.324 3.836-1.89 1.892-3.188 4.046-3.836 6.324-.636 2.232-.636 4.543 0 6.775.648 2.28 1.945 4.434 3.836 6.325z"/></g></svg>