<?xml version="1.0" encoding="UTF-8"?>
<svg width="233px" height="313px" viewBox="0 0 233 313" version="1.1" xmlns="http://www.w3.org/2000/svg" xmlns:xlink="http://www.w3.org/1999/xlink">
    <!-- Generator: Sketch 47.1 (45422) - http://www.bohemiancoding.com/sketch -->
    <title>egg - plus</title>
    <desc>Created with Sketch.</desc>
    <defs>
        <path d="M101,150 L61.5,150 L61.5,150 C51.2827321,150 43,158.282732 43,168.5 C43,178.717268 51.2827321,187 61.5,187 L101,187 L101,226.5 C101,236.717268 109.282732,245 119.5,245 C129.717268,245 138,236.717268 138,226.5 L138,187 L177.5,187 C187.717268,187 196,178.717268 196,168.5 C196,158.282732 187.717268,150 177.5,150 L138,150 L138,110.5 L138,110.5 C138,100.282732 129.717268,92 119.5,92 L119.5,92 L119.5,92 C109.282732,92 101,100.282732 101,110.5 L101,150 Z" id="path-1"></path>
    </defs>
    <g id="Page-1" stroke="none" stroke-width="1" fill="none" fill-rule="evenodd">
        <g id="egg---plus">
            <g id="Group" fill-rule="nonzero" fill="#FFE0B3">
                <path d="M193.7,48.5 C154.3,-2.8 116.6,0.5 116.6,0.5 C116.6,0.5 78.8,-2.7 39.5,48.5 C0.2,99.7 -4.2,160.2 4,210 C15.1,277.1 60.6,312.6 116.5,312.6 C172.4,312.6 218,277.1 229,210 C237.3,160.2 233,99.8 193.7,48.5 Z" id="Shape"></path>
            </g>
            <g id="Combined-Shape">
                <use fill="#FFFFFF" fill-rule="evenodd" xlink:href="#path-1"></use>
                <path stroke="#F5E0A9" stroke-width="1" d="M101.5,110.5 L101.5,150.5 L61.5,150.5 C51.5588745,150.5 43.5,158.558875 43.5,168.5 C43.5,178.441125 51.5588745,186.5 61.5,186.5 L101.5,186.5 L101.5,226.5 C101.5,236.441125 109.558875,244.5 119.5,244.5 C129.441125,244.5 137.5,236.441125 137.5,226.5 L137.5,186.5 L177.5,186.5 C187.441125,186.5 195.5,178.441125 195.5,168.5 C195.5,158.558875 187.441125,150.5 177.5,150.5 L137.5,150.5 L137.5,110.5 C137.5,100.558875 129.441125,92.5 119.5,92.5 C109.558875,92.5 101.5,100.558875 101.5,110.5 Z"></path>
            </g>
        </g>
    </g>
</svg>