<svg width="233" height="313" viewBox="0 0 233 313" xmlns="http://www.w3.org/2000/svg" xmlns:xlink="http://www.w3.org/1999/xlink"><title>egg-minus</title><defs><path d="M193.7 48.5C154.3-2.8 116.6.5 116.6.5s-37.8-3.2-77.1 48S-4.2 160.2 4 210c11.1 67.1 56.6 102.6 112.5 102.6S218 277.1 229 210c8.3-49.8 4-110.2-35.3-161.5z" id="a"/><path d="M61.5 150h116c10.217 0 18.5 8.283 18.5 18.5s-8.283 18.5-18.5 18.5h-116c-10.217 0-18.5-8.283-18.5-18.5S51.283 150 61.5 150z" id="b"/></defs><g fill="none" fill-rule="evenodd"><g fill-rule="nonzero"><use fill="#74AAE9" fill-rule="evenodd" xlink:href="#a"/><path stroke="#74AAE9" d="M193.303 48.804c-16.335-21.27-33.522-34.782-50.623-42.062-6.202-2.64-12.03-4.292-17.37-5.144-3.54-.565-6.355-.71-8.327-.62-.17.008-.285.015-.425.02-.052-.004-.16-.01-.323-.018-1.958-.085-4.765.06-8.302.626-5.344.855-11.18 2.508-17.388 5.148-17.133 7.285-34.333 20.794-50.648 42.05C4.917 94.377-5.233 150.847 4.493 209.918 15.14 274.285 58.406 312.1 116.5 312.1c58.13 0 101.46-37.847 112.007-102.182 9.843-59.06-.22-115.448-35.204-161.114z"/></g><use fill="#FFF" xlink:href="#b"/><path stroke="#F5E0A9" d="M61.5 150.5c-9.94 0-18 8.06-18 18s8.06 18 18 18h116c9.94 0 18-8.06 18-18s-8.06-18-18-18h-116z"/></g></svg>