<svg width="233" height="313" viewBox="0 0 233 313" xmlns="http://www.w3.org/2000/svg" xmlns:xlink="http://www.w3.org/1999/xlink"><title>egg-warning</title><defs><path d="M193.7 48.5C154.3-2.8 116.6.5 116.6.5s-37.8-3.2-77.1 48S-4.2 160.2 4 210c11.1 67.1 56.6 102.6 112.5 102.6S218 277.1 229 210c8.3-49.8 4-110.2-35.3-161.5z" id="a"/><path d="M104.68 180.703l-3.653-54.673c-.685-10.653-1.027-18.3-1.027-22.942 0-6.315 1.655-11.242 4.965-14.78 3.31-3.54 7.666-5.308 13.07-5.308 6.543 0 10.918 2.264 13.125 6.79 2.207 4.53 3.31 11.054 3.31 19.576 0 5.022-.266 10.12-.8 15.295l-4.907 56.27c-.533 6.698-1.674 11.834-3.424 15.41-1.75 3.576-4.643 5.365-8.676 5.365-4.11 0-6.962-1.73-8.56-5.194-1.598-3.46-2.74-8.73-3.424-15.807zm12.67 75.104c-4.643 0-8.694-1.503-12.157-4.51-3.462-3.005-5.193-7.21-5.193-12.61 0-4.72 1.655-8.733 4.965-12.043 3.31-3.31 7.362-4.965 12.156-4.965 4.795 0 8.885 1.654 12.27 4.964 3.387 3.31 5.08 7.324 5.08 12.042 0 5.326-1.712 9.51-5.136 12.555-3.424 3.045-7.42 4.567-11.985 4.567z" id="b"/></defs><g fill="none" fill-rule="evenodd"><g fill-rule="nonzero"><use fill="#FAD001" fill-rule="evenodd" xlink:href="#a"/><path stroke="#FAD001" stroke-width="2" d="M192.906 49.108c-16.283-21.2-33.402-34.66-50.422-41.906-6.164-2.624-11.954-4.265-17.252-5.11-3.506-.56-6.288-.702-8.226-.614-.165.007-.272.014-.32.018h-.17c-.045-.003-.147-.01-.303-.017-1.925-.084-4.7.06-8.2.62-5.306.848-11.102 2.49-17.273 5.114-17.052 7.25-34.183 20.706-50.447 41.895C5.405 94.56-4.72 150.89 4.987 209.836 15.595 273.965 58.653 311.6 116.5 311.6c57.884 0 101.006-37.667 111.514-101.764 9.822-58.933-.216-115.183-35.108-160.728z"/></g><use fill="#FFF" xlink:href="#b"/><use fill="#000" xlink:href="#b"/></g></svg>