<svg width="212" height="151" xmlns="http://www.w3.org/2000/svg"><g fill="none" fill-rule="evenodd"><g transform="translate(95.568)"><path d="M46.822 20.758C58.12 24.534 66.379 36.537 66.379 50.76c0 7.099-2.057 13.644-5.523 18.89 11.949 6.613 19.97 18.847 19.97 32.847 0 21.025-18.094 38.07-40.413 38.07C18.094 140.567 0 123.522 0 102.497c0-13.336 7.279-25.07 18.3-31.87-3.871-5.4-6.196-12.321-6.196-19.867 0-15.161 9.384-27.8 21.831-30.64.178-4.276-.267-7.556-1.335-9.84-1.127-2.41-2.834-5.752-5.12-10.023 6.56 7.507 10.878 13.626 12.95 18.358-.122-5.084-3.368-11.148-9.737-18.19 6.898 5.117 10.881 8.65 11.95 10.599.515.937.782 2.314.801 4.13.419-1.902.915-3.7 1.21-4.936.715-2.997 3.39-3.195 3.714-3.305 2.012-.684.328-.011-.072.52-.587.78-1.72 2.206-2.152 3.989-1.207 4.978-.66 6.16.678 9.336z" fill-rule="nonzero" fill="#F7D00F"/><path d="M48.32 7.124c-.159.035-.448.1-.601.142-.418.116-.809.28-1.176.51-.828.522-1.422 1.323-1.7 2.488-.103.433-.683 2.706-.846 3.373-.134.55-.253 1.063-.362 1.558l-.367 1.673-.018-1.712c-.02-1.787-.281-3.133-.777-4.038-.97-1.768-4.436-4.91-10.378-9.4 5.569 6.472 8.415 12.1 8.53 16.893l.023.991-.397-.908c-1.941-4.433-5.87-10.1-11.782-16.997 1.882 3.55 3.317 6.382 4.308 8.5 1.084 2.317 1.532 5.626 1.353 9.931l-.007.15-.145.032C21.464 23.166 12.3 35.873 12.3 50.76c0 7.312 2.2 14.233 6.157 19.753l.122.17-.178.11C7.128 77.749.195 89.567.195 102.497c0 20.915 18.004 37.875 40.218 37.875 22.214 0 40.218-16.96 40.218-37.875 0-13.585-7.657-25.917-19.87-32.676l-.184-.103.117-.175c3.541-5.361 5.49-11.902 5.49-18.783 0-13.908-8.009-26.002-19.424-29.817l-.084-.028-.034-.081c-.684-1.622-.871-2.103-1.07-2.832-.475-1.742-.387-3.455.382-6.626.222-.915.63-1.791 1.196-2.675.167-.26.341-.513.537-.78.076-.104.152-.207.242-.326l.21-.279a1.4 1.4 0 0 1 .169-.18l.013-.012h-.001z" stroke="#F7D00F" stroke-width=".5"/><path d="M40.218 57.006c-4.183-6.562-5.875-10.857-5.076-12.885 1.199-3.042 8.859-3.284 10.152 0 .863 2.19-.83 6.485-5.076 12.885z" fill-rule="nonzero" fill="#F5A623"/><path d="M40.22 56.648c4.089-6.208 5.71-10.379 4.893-12.455-1.202-3.049-8.628-2.948-9.79 0-.755 1.918.87 6.092 4.898 12.455z" stroke="#F5A623" stroke-width=".5"/><path d="M36.462 44.907a26.293 26.293 0 0 1 4.523-.394c1.004 0 1.932.058 2.783.175l-.008.061c-.134 1.04 0 3.952 0 5.106 0 4.832 1.332 8.625 3.995 11.38 2.663 2.755 6.355 4.132 11.077 4.132 2.069 0 3.909-.156 5.52-.467a19.807 19.807 0 0 0 4.776-1.592v-5.244c-1.775.787-3.436 1.35-4.982 1.688-1.547.338-3.218.508-5.011.508-2.727 0-4.841-.792-6.342-2.375-1.201-1.267-1.951-2.971-2.25-5.111 2.314 1.196 5.068 1.89 8.026 1.89 4.152 0 7.906-1.368 10.599-3.573h1.47v-1.406c1.743-1.95 2.77-4.344 2.77-6.93 0-6.577-6.644-11.908-14.839-11.908-7.236 0-13.264 4.158-14.573 9.66a18.131 18.131 0 0 0-3.214-.29c-1.3 0-2.737.143-4.31.427-1.242-5.57-7.31-9.797-14.606-9.797-8.195 0-14.838 5.331-14.838 11.909l-.002 2.311c-.081 1.224.03 3.737.03 4.788 0 4.832 1.331 8.625 3.994 11.38 2.663 2.755 6.356 4.132 11.078 4.132 2.068 0 3.908-.156 5.518-.467a19.815 19.815 0 0 0 4.778-1.592v-5.244c-1.776.787-3.437 1.35-4.984 1.688-1.546.338-3.216.508-5.01.508-2.727 0-4.841-.792-6.342-2.375-1.043-1.1-1.746-2.529-2.108-4.287 2.286.73 4.99 1.067 7.886 1.067 7.28 0 13.334-4.207 14.596-9.758z" stroke="#4A4A4A" stroke-width=".781" fill="#8D8D8D" fill-rule="nonzero"/><g transform="translate(13.666 37.484)"><ellipse cx="7.809" cy="5.466" rx="7.809" ry="5.466" transform="translate(.39 .39)" fill-rule="nonzero" fill="#FFF"/><ellipse stroke="#4A4A4A" stroke-width=".781" cx="8.2" cy="5.857" rx="8.2" ry="5.857"/></g><g transform="translate(50.37 37.484)"><ellipse cx="7.809" cy="5.466" rx="7.809" ry="5.466" transform="translate(.39 .39)" fill-rule="nonzero" fill="#FFF"/><ellipse stroke="#4A4A4A" stroke-width=".781" cx="8.2" cy="5.857" rx="8.2" ry="5.857"/></g><path d="M70.485 82.308c8.459-12.644 12.994-21.274 13.604-25.89.917-6.922-1.308-12.348-4.714-16.798-4.81-6.287-9.559-11.557-14.248-15.808-2.187.777-2.931 2.677-2.231 5.7.3 1.293 4.53 5.06 5.9 7.219 1.223 1.926 2.944 4.902 5.16 8.93.307.562.401.773.284.63-2.405-2.921-4.388-5.23-4.29-4.323.357 3.296.357 7.147 0 11.552l-2.793 13.535-4.261 4.04 7.59 11.212z" fill-rule="nonzero" fill="#F7D00F"/><path d="M70.484 81.958c8.338-12.487 12.81-21.02 13.412-25.565.83-6.27-.851-11.657-4.676-16.655-4.773-6.239-9.485-11.473-14.136-15.702-1.998.763-2.666 2.549-1.998 5.432.13.563.751 1.3 3.108 3.853l.21.227c1.344 1.461 2.084 2.334 2.557 3.078 1.226 1.93 2.948 4.91 5.167 8.941.155.286.258.482.307.594.057.125.066.15.04.232-.094.133-.094.133-.24.13-.064-.027-.064-.027-.087-.046a.456.456 0 0 1-.058-.061c-1.445-1.756-2.383-2.857-3.076-3.589-.385-.407-.675-.678-.862-.802.35 3.291.348 7.128-.012 11.534l-2.804 13.595-4.185 3.968 7.334 10.835v.001z" stroke="#F7D00F" stroke-width=".5"/><path fill="#F7D00F" fill-rule="nonzero" d="M62.193 71.576l4.748-1.265.818 3.768-2.53 1.331"/><circle stroke="#4794ED" stroke-width=".5" fill="#74AAE9" fill-rule="nonzero" cx="57.593" cy="43.927" r="1.757"/><circle stroke="#4794ED" stroke-width=".5" fill="#74AAE9" fill-rule="nonzero" cx="22.842" cy="43.927" r="1.757"/></g><path d="M178.974 73.61c3.034 12.43 2.794 24.952.934 36.11-4.295 26.2-22.1 40.062-43.927 40.062-21.827 0-39.593-13.862-43.927-40.062-2.351-14.28-2.05-30.814 4.355-46.508l12.09 16.766 6.644-10.387 8.795 10.387 8.26-6.223 7.029 20.603 10.686-24.767 8.66 7.19 5.83-3.026 12.278 3.026 2.293-3.17v-.002z" stroke="#FFE0B3" stroke-width=".5" fill="#FFE0B3" fill-rule="nonzero"/><g stroke="#4A4A4A" font-weight="500" font-family="OpenSans-SemiBold, Open Sans" stroke-width=".781" fill="#8D8D8D" font-size="56.227"><text transform="translate(-4 4.686)"><tspan x="0" y="60">DF</tspan></text><text transform="translate(-4 4.686)"><tspan x="71.65" y="60">P</tspan></text><text transform="translate(-4 4.686)"><tspan x="183.362" y="60">p</tspan></text></g></g></svg>