<svg width="233" height="385" viewBox="0 0 233 385" xmlns="http://www.w3.org/2000/svg" xmlns:xlink="http://www.w3.org/1999/xlink"><title>chicken</title><defs><path d="M119.913 53.163C148.85 62.833 170 93.573 170 130c0 18.18-5.268 34.943-14.143 48.377C186.457 195.315 207 226.647 207 262.5c0 53.848-46.34 97.5-103.5 97.5S0 316.348 0 262.5c0-34.154 18.642-64.207 46.865-81.62C36.953 167.05 31 149.325 31 130c0-38.83 24.032-71.197 55.91-78.47.456-10.953-.684-19.354-3.42-25.203-2.886-6.173-7.257-14.73-13.11-25.668 16.8 19.224 27.856 34.896 33.162 47.015-.31-13.02-8.623-28.55-24.935-46.586 17.665 13.106 27.867 22.154 30.606 27.145 1.318 2.4 2.002 5.926 2.05 10.576 1.072-4.87 2.342-9.475 3.098-12.64 1.832-7.675 8.683-8.183 9.512-8.465 5.153-1.752.84-.028-.185 1.332-1.502 1.996-4.405 5.65-5.51 10.216-3.092 12.75-1.692 15.777 1.736 23.91z" id="a"/><path d="M103.067 106.923c10.713 16.806 15.046 27.806 13 33-3.07 7.79-22.687 8.41-26 0-2.21-5.607 2.125-16.607 13-33z" id="b"/><ellipse id="c" cx="39" cy="32" rx="20" ry="14"/><ellipse id="d" cx="133" cy="32" rx="20" ry="14"/><path d="M180.517 210.795c21.663-32.382 33.277-54.483 34.84-66.303 2.348-17.73-3.35-31.625-12.072-43.024-12.318-16.1-24.482-29.596-36.49-40.484-5.603 1.99-7.508 6.856-5.715 14.6.767 3.31 11.6 12.957 15.11 18.486 3.134 4.932 7.54 12.555 13.217 22.87.785 1.44 1.027 1.98.727 1.616-6.16-7.484-11.24-13.398-10.99-11.073.916 8.442.916 18.304 0 29.586l-7.15 34.662-10.914 10.346 19.437 28.717z" id="e"/></defs><g fill="none" fill-rule="evenodd"><g transform="translate(13)"><use fill="#F7D00F" xlink:href="#a"/><path stroke="#F7D00F" d="M123.75 18.245c-.406.09-1.148.254-1.54.364-1.07.298-2.07.715-3.01 1.307-2.12 1.336-3.642 3.388-4.353 6.37-.265 1.11-1.75 6.93-2.167 8.64-.343 1.41-.65 2.722-.927 3.99l-.94 4.285-.048-4.386c-.05-4.575-.72-8.024-1.99-10.34-2.485-4.53-11.36-12.578-26.578-24.075 14.262 16.576 21.552 30.99 21.845 43.263l.06 2.54-1.018-2.327c-4.97-11.352-15.03-25.866-30.174-43.53 4.82 9.09 8.497 16.346 11.034 21.77 2.775 5.933 3.924 14.408 3.464 25.434l-.016.382-.372.084C54.97 59.33 31.5 91.872 31.5 130c0 18.725 5.637 36.45 15.77 50.588l.313.435-.456.282C18.255 199.12.5 229.387.5 262.5c0 53.565 46.108 97 103 97s103-43.435 103-97c0-34.79-19.61-66.374-50.885-83.685l-.473-.262.298-.45c9.07-13.73 14.06-30.48 14.06-48.103 0-35.62-20.51-66.593-49.745-76.363l-.214-.072-.087-.208c-1.752-4.155-2.232-5.387-2.74-7.253-1.218-4.46-.992-8.848.977-16.97.568-2.343 1.615-4.587 3.064-6.85.426-.666.873-1.313 1.374-2 .194-.265.39-.527.62-.833l.54-.714c.114-.15.258-.304.43-.462l.033-.03z"/><g transform="rotate(180 103.034 126.46)"><use fill="#F5A623" xlink:href="#b"/><path stroke="#F5A623" d="M103.06 107.842c-10.47 15.898-14.623 26.58-12.528 31.898 3.076 7.807 22.096 7.55 25.07 0 1.935-4.913-2.226-15.604-12.543-31.898z"/></g><path d="M93.382 115.01c3.86-.673 7.723-1.01 11.584-1.01 2.57 0 4.947.15 7.127.448l-.02.158c-.343 2.66 0 10.12 0 13.076 0 12.375 3.41 22.09 10.23 29.144 6.82 7.055 16.277 10.582 28.37 10.582 5.298 0 10.01-.398 14.134-1.195 4.125-.797 8.203-2.156 12.234-4.078v-13.43c-4.546 2.016-8.8 3.457-12.76 4.324-3.962.866-8.24 1.3-12.833 1.3-6.984 0-12.398-2.027-16.242-6.082-3.076-3.245-4.997-7.61-5.76-13.09C135.37 138.22 142.424 140 150 140c10.633 0 20.246-3.505 27.143-9.154h3.765v-3.6C185.372 122.25 188 116.12 188 109.5c0-16.845-17.013-30.5-38-30.5-18.534 0-33.97 10.65-37.324 24.74-2.743-.493-5.486-.74-8.23-.74-3.328 0-7.01.364-11.04 1.092C90.225 89.827 74.687 79 56 79c-20.987 0-38 13.655-38 30.5 0 1.256.095 2.494.278 3.71-.076.448-.146.912-.208 1.396-.342 2.66 0 10.12 0 13.076 0 12.375 3.41 22.09 10.23 29.144 6.82 7.055 16.278 10.582 28.372 10.582 5.296 0 10.007-.398 14.132-1.195s8.203-2.156 12.235-4.078v-13.43c-4.548 2.016-8.802 3.457-12.763 4.324-3.96.866-8.238 1.3-12.832 1.3-6.984 0-12.398-2.027-16.242-6.082-3.077-3.246-4.997-7.61-5.76-13.093C41.367 138.22 48.424 140 56 140c18.643 0 34.15-10.775 37.382-24.99z" stroke="#4A4A4A" stroke-width="2" fill="#8D8D8D"/><g transform="translate(17 79)"><use fill="#FFF" xlink:href="#c"/><ellipse stroke="#4A4A4A" stroke-width="2" cx="39" cy="32" rx="21" ry="15"/></g><g transform="translate(17 79)"><use fill="#FFF" xlink:href="#d"/><ellipse stroke="#4A4A4A" stroke-width="2" cx="133" cy="32" rx="21" ry="15"/></g><use fill="#F7D00F" xlink:href="#e"/><path stroke="#F7D00F" d="M180.515 209.9c21.353-31.98 32.807-53.833 34.348-65.473 2.125-16.06-2.18-29.855-11.975-42.655-12.224-15.978-24.293-29.383-36.204-40.214-5.118 1.955-6.827 6.527-5.117 13.912.334 1.44 1.924 3.33 7.96 9.868l.536.58c3.444 3.743 5.34 5.978 6.55 7.884 3.14 4.943 7.55 12.574 13.233 22.898.398.732.66 1.235.787 1.52.145.322.168.387.1.595-.24.342-.24.342-.615.334-.162-.07-.162-.07-.22-.118-.048-.04-.094-.09-.15-.158-3.7-4.495-6.103-7.315-7.876-9.19-.987-1.043-1.73-1.736-2.208-2.055.897 8.43.89 18.257-.03 29.54l-7.183 34.817-10.718 10.162 18.783 27.75z"/><path fill="#F7D00F" d="M159.28 183.31l12.16-3.24 2.094 9.65-6.477 3.41"/><circle stroke="#4794ED" fill="#74AAE9" cx="147.5" cy="112.5" r="4.5"/><circle stroke="#4794ED" fill="#74AAE9" cx="58.5" cy="112.5" r="4.5"/></g><path d="M226.608 188.518c7.77 31.836 7.155 63.904 2.392 92.482-11 67.1-56.6 102.6-112.5 102.6S15.1 348.1 4 281c-6.022-36.573-5.248-78.916 11.153-119.11l30.964 42.938 17.016-26.6 22.523 26.6 21.156-15.937 18 52.766 27.368-63.43 22.18 18.415 14.93-7.75 31.444 7.75 5.874-8.122z" stroke="#FFE0B3" fill="#FFE0B3" fill-rule="nonzero"/></g></svg>